<svg width="46" height="52" viewBox="0 0 46 52" fill="none" xmlns="http://www.w3.org/2000/svg">
<path d="M22.5546 51.9899C22.149 51.9881 21.7468 51.9155 21.366 51.7754C18.0377 50.5837 6.8169 45.8648 2.63285 35.8787C-0.481407 28.4427 -0.148585 16.264 0.255555 11.3782C0.255555 9.25703 2.3238 8.47054 3.27472 8.11304C7.3399 6.51622 17.5385 2.34542 20.938 0.438762C21.4629 0.150885 22.0515 0 22.6497 0C23.2479 0 23.8365 0.150885 24.3614 0.438762C27.8322 2.34542 37.8882 6.49238 41.9296 8.08921C42.7031 8.26861 43.4057 8.67505 43.9477 9.25663C44.4897 9.83821 44.8465 10.5685 44.9725 11.3543V11.3543C45.2578 16.2401 45.5906 28.4189 42.4764 35.8548C38.2923 45.8409 27.1428 50.5361 23.8384 51.7516C23.4298 51.9134 22.9939 51.9943 22.5546 51.9899ZM22.5546 2.39308C22.3558 2.39496 22.1603 2.44396 21.9841 2.53608C18.3706 4.51423 8.29082 8.63737 4.05923 10.401C2.79926 10.8777 2.53776 11.2114 2.51399 11.5927C2.25249 16.3593 1.91966 28.0614 4.89129 35.0445C8.69496 44.125 19.1551 48.4864 22.2218 49.6066C22.4664 49.7023 22.7379 49.7023 22.9825 49.6066C26.073 48.4864 36.438 44.125 40.2417 35.0445C43.142 28.0614 42.833 16.3116 42.619 11.5927C42.619 11.2114 42.3337 10.9015 41.0975 10.401C36.8184 8.70887 26.8337 4.58573 23.244 2.60758C23.04 2.4702 22.8004 2.39564 22.5546 2.39308V2.39308Z" fill="#E12D2F"/>
<path d="M20.1773 33.0425C20.0095 33.027 19.8466 32.9767 19.6993 32.8946C19.5519 32.8125 19.4233 32.7006 19.3215 32.5658L14.5669 26.2024C14.3777 25.9495 14.2965 25.6317 14.3411 25.3188C14.3857 25.006 14.5524 24.7237 14.8046 24.534C15.059 24.3504 15.3743 24.2727 15.6846 24.3171C15.9948 24.3616 16.2759 24.5247 16.4687 24.7724L20.4151 30.0633L32.0638 19.0762C32.1743 18.9646 32.3058 18.8759 32.4506 18.8154C32.5955 18.7549 32.7508 18.7238 32.9078 18.7238C33.0647 18.7238 33.22 18.7549 33.3649 18.8154C33.5097 18.8759 33.6412 18.9646 33.7517 19.0762C33.8624 19.185 33.9503 19.3148 34.0104 19.458C34.0704 19.6012 34.1013 19.755 34.1013 19.9104C34.1013 20.0658 34.0704 20.2196 34.0104 20.3628C33.9503 20.506 33.8624 20.6358 33.7517 20.7446L21.0569 32.6612C20.9438 32.7813 20.8075 32.8771 20.6563 32.9426C20.5051 33.0082 20.3421 33.0422 20.1773 33.0425Z" fill="#E12D2F"/>
</svg>
